<?xml version="1.0" encoding="UTF-8" standalone="no"?>
<svg
   width="600"
   zoomAndPan="magnify"
   viewBox="0 0 450 141"
   height="188"
   preserveAspectRatio="xMidYMid"
   version="1.0"
   id="svg59"
   sodipodi:docname="co2e-w-logo.svg"
   inkscape:version="1.4 (e7c3feb1, 2024-10-09)"
   xmlns:inkscape="http://www.inkscape.org/namespaces/inkscape"
   xmlns:sodipodi="http://sodipodi.sourceforge.net/DTD/sodipodi-0.dtd"
   xmlns="http://www.w3.org/2000/svg"
   xmlns:svg="http://www.w3.org/2000/svg">
  <sodipodi:namedview
     id="namedview59"
     pagecolor="#ffffff"
     bordercolor="#666666"
     borderopacity="1.0"
     inkscape:showpageshadow="2"
     inkscape:pageopacity="0.0"
     inkscape:pagecheckerboard="0"
     inkscape:deskcolor="#d1d1d1"
     inkscape:zoom="2.018"
     inkscape:cx="300.04955"
     inkscape:cy="48.315164"
     inkscape:window-width="1968"
     inkscape:window-height="1060"
     inkscape:window-x="2693"
     inkscape:window-y="44"
     inkscape:window-maximized="0"
     inkscape:current-layer="svg59" />
  <defs
     id="defs7">
    <g
       id="g1" />
    <clipPath
       id="f908080069">
      <path
         d="m 126,123 h 99 v 113 h -99 z m 0,0"
         clip-rule="nonzero"
         id="path1" />
    </clipPath>
    <clipPath
       id="a867bac4e8">
      <path
         d="m 105.85938,153.61719 92.24218,-45.25781 47.57422,96.96093 -92.24609,45.25781 z m 0,0"
         clip-rule="nonzero"
         id="path2" />
    </clipPath>
    <clipPath
       id="2f4de050e2">
      <path
         d="m 105.85938,153.61719 92.24218,-45.25781 47.57422,96.96093 -92.24609,45.25781 z m 0,0"
         clip-rule="nonzero"
         id="path3" />
    </clipPath>
    <clipPath
       id="f59d475e48">
      <path
         d="m 67,172 h 27.960938 v 31.41797 H 67 Z m 0,0"
         clip-rule="nonzero"
         id="path4" />
    </clipPath>
    <clipPath
       id="06d4f425c2">
      <path
         d="m 88.683594,185.4375 c -2.328125,1.97656 -5.175782,3.23437 -8.007813,4.38281 -2.828125,1.14844 -5.71875,2.24219 -8.246093,3.96094 -0.01953,0.0156 -0.04297,0.0312 -0.05859,0.043 -3.007813,2.07031 -4.921875,5.38281 -5.269532,9.02344 -0.02344,0.24609 -0.04297,0.49609 -0.0625,0.74218 0.703126,-2.97265 2.875,-5.42578 5.398438,-7.14843 2.527344,-1.72266 5.414062,-2.8125 8.246094,-3.96485 2.828125,-1.15234 5.679687,-2.40625 8.007812,-4.3789 4.46875,-3.79297 6.492188,-9.94922 6.097656,-15.80469 -0.285156,5 -2.316406,9.92187 -6.105468,13.14453 z m 0,0"
         clip-rule="nonzero"
         id="path5" />
    </clipPath>
    <clipPath
       id="636a410fb5">
      <path
         d="M 65,153.91797 H 93 V 199 H 65 Z m 0,0"
         clip-rule="nonzero"
         id="path6" />
    </clipPath>
    <clipPath
       id="912bf93b07">
      <path
         d="m 92.070312,169.14453 c -0.539062,-5.60156 -3.226562,-10.82031 -6.726562,-15.22266 1.144531,3.25782 -0.460938,6.94532 -2.933594,9.36329 -2.46875,2.41406 -5.683594,3.8789 -8.691406,5.57421 -3.011719,1.69141 -6,3.79688 -7.488281,6.91407 -1.136719,2.39062 -1.269531,5.16406 -0.851563,7.77734 0.277344,1.72656 0.785156,3.40234 1.363282,5.05469 0.800781,-1.98828 1.886718,-3.85938 3.226562,-5.53125 2.746094,-3.4375 6.203125,-6.26172 9.753906,-8.86328 6.785156,-4.97266 7.230469,-7.00782 7.363282,-10.6836 0.699218,2.97657 -0.785157,6.08985 -2.871094,8.32813 -2.085938,2.23828 -4.742188,3.85156 -7.085938,5.82031 C 70.914062,182.875 66.9375,190.66016 66.375,198.74219 c 0.652344,-2.75782 2.664062,-5.03516 5.011719,-6.63282 2.34375,-1.59765 5.019531,-2.60937 7.644531,-3.67578 2.628906,-1.0664 5.265625,-2.22656 7.425781,-4.0664 4.285157,-3.63672 6.148438,-9.625 5.613281,-15.22266 z m 0,0"
         clip-rule="nonzero"
         id="path7" />
    </clipPath>
  </defs>
  <g
     fill="#81b622"
     fill-opacity="1"
     id="g10"
     transform="translate(37.5,-121.56838)">
    <g
       transform="translate(30.634497,227.67195)"
       id="g9">
      <g
         id="g8">
        <path
           d="m 49.78125,-11.015625 c 6.164062,0 11.890625,-1.6875 17.171875,-5.0625 5.289063,-3.375 9.457031,-7.953125 12.5,-13.734375 l 11.15625,5.875 C 86.492188,-16.101562 80.789062,-9.882812 73.5,-5.28125 66.207031,-0.6875 58.300781,1.609375 49.78125,1.609375 c -6.460938,0 -12.507812,-1.273437 -18.140625,-3.8125 -5.625,-2.539063 -10.59375,-6.0625 -14.90625,-10.5625 -4.304687,-4.507813 -7.65625,-9.703125 -10.0625,-15.578125 -2.398437,-5.875 -3.59375,-12.1875 -3.59375,-18.9375 0,-6.757812 1.195313,-13.097656 3.59375,-19.015625 2.40625,-5.925781 5.757813,-11.117187 10.0625,-15.578125 4.3125,-4.457031 9.28125,-7.957031 14.90625,-10.5 5.632813,-2.539062 11.679687,-3.8125 18.140625,-3.8125 8.425781,0 16.257812,2.25 23.5,6.75 7.25,4.5 12.925781,10.621094 17.03125,18.359375 l -11.15625,5.875 c -2.9375,-5.675781 -7.054688,-10.15625 -12.34375,-13.4375 -5.28125,-3.28125 -10.960938,-4.921875 -17.03125,-4.921875 -6.261719,0 -11.964844,1.640625 -17.109375,4.921875 -5.136719,3.28125 -9.246094,7.664063 -12.328125,13.140625 -3.085938,5.480469 -4.625,11.554688 -4.625,18.21875 0,6.65625 1.539062,12.726562 4.625,18.203125 3.082031,5.480469 7.191406,9.859375 12.328125,13.140625 5.144531,3.28125 10.847656,4.921875 17.109375,4.921875 z m 0,0"
           id="path8" />
      </g>
    </g>
  </g>
  <g
     fill="#81b622"
     fill-opacity="1"
     id="g13"
     transform="translate(37.5,-121.56838)">
    <g
       transform="translate(131.37985,227.67195)"
       id="g12">
      <g
         id="g11" />
    </g>
  </g>
  <g
     fill="#81b622"
     fill-opacity="1"
     id="g16"
     transform="translate(37.5,-121.56838)">
    <g
       transform="translate(177.49283,227.67195)"
       id="g15">
      <g
         id="g14" />
    </g>
  </g>
  <g
     fill="#81b622"
     fill-opacity="1"
     id="g19"
     transform="translate(37.5,-121.56838)">
    <g
       transform="translate(223.61362,227.67195)"
       id="g18">
      <g
         id="g17">
        <path
           d="M 21,-12.78125 H 52.875 V -0.140625 H 5.140625 v -12.9375 c 2.445313,-3.320313 4.84375,-6.5 7.1875,-9.53125 2.351563,-3.039063 4.753906,-6.222656 7.203125,-9.546875 3.425781,-4.707031 6.707031,-9.382812 9.84375,-14.03125 3.132812,-4.644531 5.726562,-9.171875 7.78125,-13.578125 2.050781,-4.40625 3.078125,-8.472656 3.078125,-12.203125 0,-1.457031 -0.273437,-3.117188 -0.8125,-4.984375 -0.53125,-1.863281 -1.632813,-3.453125 -3.296875,-4.765625 -1.667969,-1.320312 -4.261719,-1.984375 -7.78125,-1.984375 -8.417969,0 -12.625,4.945313 -12.625,14.828125 H 3.078125 c 0,-8.519531 2.300781,-15.175781 6.90625,-19.96875 4.601563,-5 10.722656,-7.5 18.359375,-7.5 7.34375,0 13.265625,2.257812 17.765625,6.765625 4.507813,4.5 6.765625,10.371094 6.765625,17.609375 0,5.09375 -1.152344,10.289062 -3.453125,15.578125 -2.304687,5.28125 -5.21875,10.570313 -8.75,15.859375 -3.523437,5.28125 -7.1875,10.570312 -11,15.859375 z m 0,0"
           id="path16" />
      </g>
    </g>
  </g>
  <g
     fill="#81b622"
     fill-opacity="1"
     id="g22"
     transform="translate(37.5,-121.56838)">
    <g
       transform="translate(286.46805,227.67195)"
       id="g21">
      <g
         id="g20">
        <path
           d="m 6.3125,0 v -94.71875 h 48.609375 v 11.453125 h -37.15625 v 30.25 H 51.6875 V -41.5625 H 17.765625 v 30.25 h 37.15625 V 0 Z m 0,0"
           id="path19" />
      </g>
    </g>
  </g>
  <g
     clip-path="url(#f908080069)"
     id="g25"
     transform="translate(37.5,-121.56838)">
    <g
       clip-path="url(#a867bac4e8)"
       id="g24">
      <g
         clip-path="url(#2f4de050e2)"
         id="g23">
        <path
           fill="#81b622"
           d="m 173.35156,218.14844 c -0.67969,-0.0547 -1.19922,-0.0586 -1.8789,-0.11719 l -8.41016,6.21094 4.70312,-6.86719 29.4375,-42.69531 -17.48437,-3.78907 16.29687,-46.92578 -6.65234,8.73438 c -1.35547,-0.37891 -2.81641,-0.70313 -4.27734,-1.02735 -6.00391,-1.08984 -12.32813,-1.24218 -18.71485,0.0703 -26.59375,5.23437 -43.82812,30.875 -38.64453,57.36718 3.07422,15.28516 13.01953,27.59375 25.87891,34.17188 l 2.69531,-10.43359 c -9.16016,-5.40235 -16.09766,-14.4961 -18.26172,-25.80469 -4.1289,-20.88672 9.51172,-41.1211 30.39844,-45.25 3.08984,-0.60547 6.22656,-0.83985 9.25781,-0.76563 l 10.08594,-6.25 -35.99609,52.94532 18.28906,0.66015 -14.57031,46.98828 6.07812,-8.83984 c 1.51172,0.42969 3.02344,0.85547 4.58984,1.12891 6.05469,1.19531 12.32813,1.24609 18.76563,0.0391 26.48828,-5.1875 43.77734,-30.98438 38.59375,-57.47266 -2.96875,-15.33984 -12.91406,-27.64453 -25.88281,-34.17187 l -2.69141,10.43359 c 9.16016,5.40234 16.09766,14.49609 18.36328,25.75391 4.39063,20.88672 -9.24609,41.12109 -30.13672,45.25 -3.34765,0.60156 -6.64453,0.78515 -9.83203,0.65625 z m 0,0"
           fill-opacity="1"
           fill-rule="evenodd"
           id="path22" />
      </g>
    </g>
  </g>
  <g
     fill="#3d550c"
     fill-opacity="1"
     id="g28"
     transform="translate(37.5,-121.56838)">
    <g
       transform="translate(112.46599,252.35935)"
       id="g27">
      <g
         id="g26">
        <path
           d="m 1.09375,-8.953125 h 6.578125 l 1.46875,1.34375 V -5.5 L 8.3125,-4.796875 9.578125,-3.578125 V -1.34375 L 8.109375,0 H 1.09375 Z m 6.1875,7.421875 0.515625,-0.453125 V -3.125 L 7.09375,-3.765625 H 2.875 V -1.53125 Z M 6.640625,-5.296875 7.34375,-5.9375 v -1.03125 l -0.5,-0.4375 H 2.875 v 2.109375 z m 0,0"
           id="path25" />
      </g>
    </g>
  </g>
  <g
     fill="#3d550c"
     fill-opacity="1"
     id="g31"
     transform="translate(37.5,-121.56838)">
    <g
       transform="translate(128.74033,252.35935)"
       id="g30">
      <g
         id="g29">
        <path
           d="M 1.09375,-8.953125 H 2.875 v 7.421875 h 5.5 V 0 H 1.09375 Z m 0,0"
           id="path28" />
      </g>
    </g>
  </g>
  <g
     fill="#3d550c"
     fill-opacity="1"
     id="g34"
     transform="translate(37.5,-121.56838)">
    <g
       transform="translate(143.41687,252.35935)"
       id="g33">
      <g
         id="g32">
        <path
           d="m 0.890625,-1.53125 v -5.875 L 2.6875,-9.078125 H 7.859375 L 9.65625,-7.40625 v 5.875 L 7.859375,0.125 H 2.6875 Z m 6.140625,0.125 0.828125,-0.765625 V -6.78125 L 7.03125,-7.546875 H 3.515625 L 2.6875,-6.78125 v 4.609375 l 0.828125,0.765625 z m 0,0"
           id="path31" />
      </g>
    </g>
  </g>
  <g
     fill="#3d550c"
     fill-opacity="1"
     id="g37"
     transform="translate(37.5,-121.56838)">
    <g
       transform="translate(160.01077,252.35935)"
       id="g36">
      <g
         id="g35">
        <path
           d="m 0.890625,-1.65625 v -5.625 L 2.6875,-8.953125 h 6 V -7.40625 H 3.515625 L 2.6875,-6.640625 v 4.34375 L 3.515625,-1.53125 H 8.6875 V 0 h -6 z m 0,0"
           id="path34" />
      </g>
    </g>
  </g>
  <g
     fill="#3d550c"
     fill-opacity="1"
     id="g40"
     transform="translate(37.5,-121.56838)">
    <g
       transform="translate(175.32644,252.35935)"
       id="g39">
      <g
         id="g38">
        <path
           d="M 1.09375,-8.953125 H 2.875 v 3.71875 h 1.53125 l 2.75,-3.71875 h 2.171875 l -3.25,4.359375 3.5,4.59375 H 7.40625 L 4.59375,-3.703125 H 2.875 V 0 H 1.09375 Z m 0,0"
           id="path37" />
      </g>
    </g>
  </g>
  <g
     fill="#3d550c"
     fill-opacity="1"
     id="g43"
     transform="translate(37.5,-121.56838)">
    <g
       transform="translate(190.96168,252.35935)"
       id="g42">
      <g
         id="g41">
        <path
           d="m 0.890625,-1.65625 v -5.625 L 2.6875,-8.953125 h 6 V -7.40625 H 3.515625 L 2.6875,-6.640625 v 4.34375 L 3.515625,-1.53125 H 8.6875 V 0 h -6 z m 0,0"
           id="path40" />
      </g>
    </g>
  </g>
  <g
     fill="#3d550c"
     fill-opacity="1"
     id="g46"
     transform="translate(37.5,-121.56838)">
    <g
       transform="translate(206.27735,252.35935)"
       id="g45">
      <g
         id="g44">
        <path
           d="M 1.09375,-8.953125 H 2.875 v 3.71875 h 4.734375 v -3.71875 h 1.78125 V 0 H 7.609375 V -3.703125 H 2.875 V 0 H 1.09375 Z m 0,0"
           id="path43" />
      </g>
    </g>
  </g>
  <g
     fill="#3d550c"
     fill-opacity="1"
     id="g49"
     transform="translate(37.5,-121.56838)">
    <g
       transform="translate(222.80733,252.35935)"
       id="g48">
      <g
         id="g47">
        <path
           d="M 3.96875,-8.953125 H 6.265625 L 10.21875,0 H 8.25 L 7.21875,-2.359375 H 3 L 1.984375,0 H 0 Z m 2.546875,5.0625 -1.40625,-3.265625 -1.40625,3.265625 z m 0,0"
           id="path46" />
      </g>
    </g>
  </g>
  <g
     fill="#3d550c"
     fill-opacity="1"
     id="g52"
     transform="translate(37.5,-121.56838)">
    <g
       transform="translate(239.08167,252.35935)"
       id="g51">
      <g
         id="g50">
        <path
           d="M 0.703125,-1.53125 H 2.5 v -5.875 H 0.703125 v -1.546875 h 5.375 V -7.40625 H 4.28125 v 5.875 H 6.078125 V 0 h -5.375 z m 0,0"
           id="path49" />
      </g>
    </g>
  </g>
  <g
     fill="#3d550c"
     fill-opacity="1"
     id="g55"
     transform="translate(37.5,-121.56838)">
    <g
       transform="translate(251.90478,252.35935)"
       id="g54">
      <g
         id="g53">
        <path
           d="M 1.09375,-8.953125 H 2.8125 L 7.734375,-2.8125 v -6.140625 h 1.78125 V 0 H 7.796875 L 2.875,-6.140625 V 0 H 1.09375 Z m 0,0"
           id="path52" />
      </g>
    </g>
  </g>
  <path
     stroke-linecap="butt"
     fill="none"
     stroke-linejoin="miter"
     d="M 95.832031,125.97068 H 139.46485"
     stroke="#81b622"
     stroke-width="9.75"
     stroke-opacity="1"
     stroke-miterlimit="4"
     id="path55" />
  <g
     clip-path="url(#f59d475e48)"
     id="g57"
     transform="translate(37.5,-121.56838)">
    <g
       clip-path="url(#06d4f425c2)"
       id="g56">
      <path
         fill="#81b622"
         d="m 94.960938,172.29297 v 31.125 H 67.039062 v -31.125 z m 0,0"
         fill-opacity="1"
         fill-rule="nonzero"
         id="path56" />
    </g>
  </g>
  <g
     clip-path="url(#636a410fb5)"
     id="g59"
     transform="translate(37.5,-121.56838)">
    <g
       clip-path="url(#912bf93b07)"
       id="g58">
      <path
         fill="#81b622"
         d="m 92.605469,153.92187 v 44.82032 H 64.960938 v -44.82032 z m 0,0"
         fill-opacity="1"
         fill-rule="nonzero"
         id="path57" />
    </g>
  </g>
  <path
     stroke-linecap="butt"
     fill="none"
     stroke-linejoin="miter"
     d="m 310.53515,125.97068 h 43.63282"
     stroke="#81b622"
     stroke-width="9.75"
     stroke-opacity="1"
     stroke-miterlimit="4"
     id="path59" />
</svg>
